<?xml version="1.0" encoding="UTF-8" standalone="no"?><svg xmlns="http://www.w3.org/2000/svg" xmlns:xlink="http://www.w3.org/1999/xlink" contentStyleType="text/css" height="367px" preserveAspectRatio="none" style="width:423px;height:367px;background:#FFFFFF;" version="1.1" viewBox="0 0 423 367" width="423px" zoomAndPan="magnify"><defs/><g><!--MD5=[54660ff766578030bc12fa2e8aa626a3]
cluster Stocks--><g id="cluster_Stocks"><rect height="354" rx="2.5" ry="2.5" style="stroke:#181818;stroke-width:1.0;fill:none;" width="238" x="179" y="7"/><text fill="#000000" font-family="sans-serif" font-size="14" font-weight="bold" lengthAdjust="spacing" textLength="55" x="270.5" y="21.9951">Stocks</text></g><g id="elem_UC1"><ellipse cx="297.8049" cy="59.061" fill="#F1F1F1" rx="70.8049" ry="16.561" style="stroke:#181818;stroke-width:0.5;"/><text fill="#000000" font-family="sans-serif" font-size="14" lengthAdjust="spacing" textLength="95" x="247.3049" y="62.8085">autehentifier</text></g><g id="elem_UC2"><ellipse cx="297.7771" cy="147.9554" fill="#F1F1F1" rx="92.7771" ry="20.9554" style="stroke:#181818;stroke-width:0.5;"/><text fill="#000000" font-family="sans-serif" font-size="14" lengthAdjust="spacing" textLength="148" x="223.7771" y="150.8021">Ajouter une annonce</text></g><g id="elem_UC3"><ellipse cx="297.9604" cy="241.9921" fill="#F1F1F1" rx="95.4604" ry="21.4921" style="stroke:#181818;stroke-width:0.5;"/><text fill="#000000" font-family="sans-serif" font-size="14" lengthAdjust="spacing" textLength="154" x="220.9604" y="244.8388">Modifier une annonce</text></g><g id="elem_UC4"><ellipse cx="298.1608" cy="322.0322" fill="#F1F1F1" rx="103.1608" ry="23.0322" style="stroke:#181818;stroke-width:0.5;"/><text fill="#000000" font-family="sans-serif" font-size="14" lengthAdjust="spacing" textLength="171" x="212.6608" y="324.8788">Supprimer une annonce</text></g><!--MD5=[02468e83512d8f57e49c35b3617987f0]
entity ut--><g id="elem_ut"><ellipse cx="42.5" cy="118.5" fill="#F1F1F1" rx="8" ry="8" style="stroke:#181818;stroke-width:0.5;"/><path d="M42.5,126.5 L42.5,153.5 M29.5,134.5 L55.5,134.5 M42.5,153.5 L29.5,168.5 M42.5,153.5 L55.5,168.5 " fill="none" style="stroke:#181818;stroke-width:0.5;"/><text fill="#000000" font-family="sans-serif" font-size="14" lengthAdjust="spacing" textLength="73" x="6" y="182.9951">Utilisateur</text></g><!--MD5=[25ab2674683f3d547bc9d0cc093b3dbc]
link ut to UC2--><g id="link_ut_UC2"><path d="M79.015,148 C110.31,148 157.39,148 199.797,148 " fill="none" id="ut-to-UC2" style="stroke:#181818;stroke-width:1.0;"/><polygon fill="#181818" points="204.944,148,195.944,144,199.944,148,195.944,152,204.944,148" style="stroke:#181818;stroke-width:1.0;"/></g><!--MD5=[8daf02cb78117a5871462b95277c15b4]
link UC2 to UC1--><g id="link_UC2_UC1"><path d="M298,126.908 C298,113.113 298,95.122 298,81.124 " fill="none" id="UC2-to-UC1" style="stroke:#181818;stroke-width:1.0;stroke-dasharray:7.0,7.0;"/><polygon fill="#181818" points="298,75.779,294,84.779,298,80.779,302,84.779,298,75.779" style="stroke:#181818;stroke-width:1.0;"/><text fill="#000000" font-family="sans-serif" font-size="13" lengthAdjust="spacing" textLength="45" x="264" y="105.8169">include</text></g><!--MD5=[a56f9de41608a5fdd8f0f70b45a15dc1]
link UC3 to UC2--><g id="link_UC3_UC2"><path d="M298,220.198 C298,206.48 298,188.696 298,174.211 " fill="none" id="UC3-to-UC2" style="stroke:#181818;stroke-width:1.0;stroke-dasharray:7.0,7.0;"/><polygon fill="#181818" points="298,169.037,294,178.037,298,174.037,302,178.037,298,169.037" style="stroke:#181818;stroke-width:1.0;"/><text fill="#000000" font-family="sans-serif" font-size="13" lengthAdjust="spacing" textLength="52" x="260.5" y="199.3169">extends</text></g><!--MD5=[808375f45a9a625fb29b5884c6a1323f]
link UC4 to UC2--><g id="link_UC4_UC2"><path d="M216.873,307.6428 C183.422,296.7852 149.373,277.7672 136,244.5 C118.618,201.259 170.666,176.268 220.299,162.602 " fill="none" id="UC4-to-UC2" style="stroke:#181818;stroke-width:1.0;stroke-dasharray:7.0,7.0;"/><polygon fill="#181818" points="225.401,161.234,215.6724,159.6998,220.5714,162.5282,217.7431,167.4272,225.401,161.234" style="stroke:#181818;stroke-width:1.0;"/><text fill="#000000" font-family="sans-serif" font-size="13" lengthAdjust="spacing" textLength="52" x="110" y="240.5669">extends</text></g><!--MD5=[fa1c6204f2b78a8e0d9401ea9b0ac9b6]
@startuml
left to right direction
actor "Utilisateur" as ut
rectangle Stocks {
  usecase "autehentifier" as UC1
  usecase "Ajouter une annonce" as UC2
  usecase "Modifier une annonce" as UC3
  usecase "Supprimer une annonce" as UC4

  
}

ut - -> UC2

(UC2) .> (UC1) :include
(UC3) .> (UC2): extends
(UC4) .> (UC2): extends
@enduml

PlantUML version 1.2022.4beta2(Unknown compile time)
(GPL source distribution)
Java Runtime: Java(TM) SE Runtime Environment
JVM: Java HotSpot(TM) 64-Bit Server VM
Default Encoding: UTF-8
Language: en
Country: US
--></g></svg>